<svg width="161" height="167" viewBox="0 0 161 167" fill="none" xmlns="http://www.w3.org/2000/svg">
<path d="M97.5293 18.0826L97.5269 18.0874L97.1317 18.8779C95.2219 22.6973 89.6347 22.2532 88.3524 18.18L87.0111 13.9196L85.8534 10.2423C84.9566 7.39359 81.0152 7.16105 79.7897 9.88451L79.5372 10.4456C77.877 14.3228 76.9662 19.593 76.6832 25.2547C76.4005 30.9082 76.7462 36.8961 77.5629 42.173C78.3825 47.4694 79.6654 51.9747 81.2148 54.7089C81.9962 56.0878 82.7826 56.903 83.507 57.2212C84.1453 57.5017 84.856 57.4481 85.73 56.733C86.4383 56.1535 87.0649 55.6926 87.626 55.3789C88.179 55.0698 88.7448 54.8594 89.3124 54.8841C89.9228 54.9106 90.4124 55.2015 90.7988 55.6422C91.1633 56.0581 91.4539 56.6253 91.7169 57.2817C91.9086 57.7339 92.1251 57.8754 92.2957 57.9237C92.5001 57.9814 92.8382 57.9621 93.3524 57.7178C94.3882 57.2257 95.7358 56.0117 97.1922 54.2108C100.077 50.6441 103.134 45.0962 104.755 39.6178C106.006 34.6026 107.265 24.7869 107.265 18.2591C107.265 14.537 107.011 11.8085 106.544 10.0247C106.31 9.12999 106.037 8.53046 105.759 8.16613C105.496 7.81944 105.268 7.73003 105.073 7.72355C104.841 7.71581 104.478 7.82035 103.96 8.2127C103.45 8.59928 102.859 9.2135 102.191 10.0851C100.856 11.8263 99.2962 14.4856 97.5293 18.0826Z" fill="white" stroke="black" stroke-width="1.5"/>
<path d="M44.55 14.9873L44.5466 14.9957L44.543 15.0041C44.418 15.296 44.3346 15.8448 44.35 16.6761C44.3649 17.4832 44.4703 18.4747 44.6569 19.594C45.0297 21.8309 45.7164 24.5187 46.594 27.1515C47.8656 30.9662 43.7209 34.3139 40.2591 32.2683L37.391 30.5735C37.3901 30.5729 37.3892 30.5724 37.3884 30.5719C34.2276 28.7388 31.7138 27.4297 29.7879 26.6539C28.8248 26.2659 28.0322 26.0211 27.3947 25.9063C26.7484 25.7899 26.3252 25.8191 26.0613 25.9103C25.8354 25.9883 25.6936 26.1202 25.597 26.3594C25.4858 26.6347 25.4292 27.0756 25.4967 27.7454C25.6317 29.0849 26.2287 31.0433 27.3018 33.6951C30.7653 41.8534 39.9933 51.1299 52.6072 58.6984C55.2667 60.2814 57.3691 61.4731 59.0288 62.2912C60.7084 63.1192 61.8575 63.5245 62.6339 63.6048C63.0099 63.6437 63.2468 63.6001 63.3986 63.5338C63.5381 63.4729 63.6585 63.3704 63.7674 63.1792C64.0167 62.7415 64.1525 61.9408 64.1525 60.6102C64.1525 59.7733 64.1991 59.0618 64.3381 58.5154C64.4719 57.9894 64.7493 57.4001 65.382 57.1768C65.9674 56.9702 66.5754 57.1878 67.0725 57.4512C67.6042 57.7329 68.2215 58.1839 68.9278 58.7618C70.2721 59.8616 71.1331 59.9917 71.6047 59.8323C72.0607 59.6782 72.5477 59.1129 72.7867 57.783C73.2564 55.1704 72.5572 50.5757 70.2971 45.1767L70.2969 45.1761C66.1412 35.2278 60.1609 25.8544 54.8651 19.9319C52.2038 16.9556 49.778 14.9226 47.8948 14.082C46.9544 13.6622 46.2489 13.5846 45.7497 13.7224C45.2923 13.8486 44.8666 14.1958 44.55 14.9873Z" fill="white" stroke="black" stroke-width="1.5"/>
<path d="M55.685 71.684C54.6457 69.7786 51.6917 67.0764 47.0282 64.3025C44.6527 62.9644 40.7964 61.7169 36.2875 60.6794C31.792 59.645 26.7113 58.8334 21.936 58.3448C17.1546 57.8557 12.7112 57.6937 9.48195 57.9462C7.85882 58.0732 6.59627 58.3013 5.76123 58.6168C4.85704 58.9585 4.78843 59.2599 4.78843 59.3422C4.78843 59.3701 4.80303 59.481 4.90792 59.6965C5.00789 59.9019 5.16661 60.1551 5.39041 60.4523C5.83764 61.0461 6.50059 61.7575 7.33758 62.5325C9.00713 64.0784 11.3079 65.821 13.7998 67.3169L23.175 72.6379L24.861 73.5948L22.97 74.0218L15.1084 75.797L15.0981 75.7993L15.0878 75.8013C11.5442 76.4974 8.7296 77.127 6.55084 77.7372C4.35962 78.3509 2.86533 78.9308 1.9272 79.5081C0.987575 80.0864 0.760302 80.5606 0.750371 80.934C0.738514 81.3798 1.0127 82.0166 1.81559 82.943L1.82256 82.951L1.82929 82.9593C2.8584 84.2171 4.5189 85.2964 6.73926 86.1454C8.9529 86.9918 11.6755 87.5908 14.7687 87.9189C20.9551 88.575 28.5471 88.1393 36.3453 86.5042L36.3453 86.5041L36.3522 86.5028C40.7915 85.6149 44.199 84.9048 46.7593 84.2676C49.3393 83.6256 50.9841 83.0747 51.9476 82.5282C52.4241 82.258 52.6739 82.0213 52.7986 81.8304C52.9079 81.663 52.943 81.4996 52.9112 81.2865C52.8752 81.0458 52.7499 80.7282 52.4868 80.3035C52.2267 79.8835 51.8607 79.4039 51.3927 78.8423L51.3927 78.8424L51.3884 78.8371C50.8112 78.1317 50.3583 77.5122 50.0794 76.9773C49.8185 76.4768 49.6033 75.8516 49.8489 75.2553C50.1041 74.6355 50.7157 74.373 51.2618 74.2443C51.8376 74.1085 52.591 74.0618 53.4905 74.0618C55.0317 74.0618 55.7019 73.7106 55.9346 73.4016C56.1215 73.1535 56.2113 72.6488 55.685 71.684Z" fill="white" stroke="black" stroke-width="1.5"/>
<path d="M73.4493 76.9468L73.4493 76.9469L73.4394 76.9536C70.4377 78.9948 68.9423 81.6486 68.5493 84.3772C68.1539 87.123 68.8685 89.9984 70.3901 92.4541C73.4355 97.3689 79.5842 100.441 86.1436 97.4623C94.2007 93.6664 95.239 81.6938 87.777 75.914C85.1629 73.9227 83.2554 73.1066 81.2482 73.2459C79.1908 73.3888 76.8674 74.5414 73.4493 76.9468Z" fill="white" stroke="black" stroke-width="1.5"/>
<path d="M108.838 91.0613L108.843 91.0679L108.849 91.0745C109.425 91.7791 109.88 92.4007 110.156 92.9388C110.415 93.4437 110.626 94.0855 110.342 94.6901C110.057 95.2947 109.426 95.5449 108.857 95.6699C108.254 95.8024 107.462 95.8494 106.506 95.8498C105.613 95.8813 105.282 96.0811 105.187 96.1883C105.15 96.2299 105.048 96.3694 105.236 96.8378C105.422 97.3038 105.837 97.9141 106.498 98.637C107.15 99.3502 108.005 100.134 109.022 100.95C113.108 104.225 119.607 107.845 125.445 109.336L125.457 109.339L125.469 109.342C131.467 111.092 139.762 111.975 146.565 112.007C149.967 112.022 152.957 111.825 155.078 111.429C156.146 111.23 156.943 110.989 157.455 110.729C157.71 110.599 157.856 110.483 157.93 110.399C157.965 110.36 157.978 110.334 157.982 110.324C157.983 110.321 157.984 110.319 157.984 110.318C157.984 110.317 157.984 110.317 157.984 110.317L157.985 110.316C157.985 110.29 157.971 110.185 157.869 109.98C157.77 109.783 157.614 109.541 157.391 109.256C156.946 108.687 156.284 108.007 155.447 107.263C153.776 105.778 151.471 104.094 148.97 102.593L139.339 97.0169L137.643 96.0351L139.561 95.6337L150.466 93.3513L150.469 93.3506C153.247 92.7824 155.395 92.2359 156.978 91.6746C158.589 91.1038 159.505 90.5546 159.94 90.0469C160.143 89.8106 160.225 89.6015 160.245 89.408C160.265 89.2084 160.226 88.9568 160.07 88.6306C159.747 87.9519 159 87.1049 157.751 86.0421C157.364 85.7357 156.719 85.3986 155.818 85.0528C154.922 84.7093 153.82 84.3749 152.564 84.0585C150.053 83.4258 146.969 82.8759 143.772 82.4664C137.348 81.6436 130.619 81.4075 127.201 82.1367C118.311 84.2962 112.962 85.9242 110.212 87.4214C108.818 88.1802 108.28 88.8081 108.14 89.2847C108.018 89.6974 108.135 90.2415 108.838 91.0613Z" fill="white" stroke="black" stroke-width="1.5"/>
<path d="M9.52765 119.02L9.52036 119.035L9.51245 119.049C8.87137 120.203 8.47242 121 8.31377 121.554C8.2355 121.827 8.24008 121.963 8.2504 122.014C8.25091 122.017 8.2511 122.019 8.25126 122.02C8.252 122.028 8.25218 122.03 8.27842 122.047C8.34121 122.087 8.49357 122.151 8.81254 122.19C9.12318 122.228 9.5356 122.238 10.073 122.215C11.1468 122.169 12.617 122 14.5799 121.746C19.0944 120.993 24.8538 119.49 27.5984 118.495C28.1066 118.273 28.5677 118.09 28.9698 117.964C29.3625 117.842 29.768 117.751 30.1339 117.773C30.5365 117.798 30.9961 117.977 31.2241 118.473C31.4087 118.875 31.3584 119.331 31.2702 119.71C31.0861 120.502 30.5629 121.637 29.7499 123.149C28.9256 124.681 27.7624 126.673 26.2428 129.206C24.8517 131.672 23.7842 133.635 23.0184 135.194C22.2457 136.767 21.8053 137.879 21.6356 138.657C21.4616 139.455 21.619 139.666 21.6876 139.731C21.8202 139.857 22.1777 139.998 23.0584 139.998C28.3625 139.998 34.4636 136.91 40.587 131.257C46.6906 125.623 52.7272 117.521 57.8951 107.691C58.9753 105.531 59.7716 103.937 60.2804 102.772C60.535 102.189 60.7068 101.737 60.8057 101.391C60.871 101.161 60.8946 101.011 60.9009 100.918C60.8966 100.918 60.8922 100.918 60.8876 100.917C60.8029 100.913 60.6878 100.916 60.535 100.933C59.8912 101.004 58.9162 101.268 57.4918 101.656L57.4791 101.66L57.4662 101.663C56.3831 101.917 55.4967 102.099 54.8153 102.187C54.4748 102.232 54.1652 102.255 53.8964 102.248C53.6433 102.242 53.3496 102.208 53.0917 102.079C52.7854 101.926 52.534 101.635 52.5003 101.224C52.4731 100.894 52.6004 100.598 52.7156 100.391C52.954 99.9605 53.4034 99.4517 53.9745 98.8806C54.6821 98.173 55.3404 97.2771 55.8191 96.4395C56.0578 96.0217 56.2449 95.6305 56.3703 95.2961C56.5009 94.9478 56.5445 94.7137 56.5445 94.5926C56.5445 94.4272 56.4822 94.2692 56.2489 94.0928C55.9906 93.8976 55.5558 93.7131 54.9144 93.5793C53.6389 93.3133 51.7947 93.2972 49.6407 93.5313C45.3438 93.9983 40.0518 95.4335 36.0935 97.5356C30.3026 100.683 24.3184 104.715 19.44 108.649C17.0006 110.616 14.8462 112.552 13.1343 114.334C11.4135 116.126 10.1748 117.726 9.52765 119.02Z" fill="white" stroke="black" stroke-width="1.5"/>
<path d="M153.408 47.8215L153.415 47.8069L153.423 47.7927C154.064 46.6387 154.463 45.8411 154.621 45.2875C154.7 45.0144 154.695 44.8787 154.685 44.8272C154.684 44.8247 154.684 44.8227 154.684 44.8209C154.683 44.8131 154.683 44.8112 154.657 44.7944C154.594 44.7542 154.442 44.6909 154.123 44.6515C153.812 44.6131 153.4 44.6038 152.862 44.6267C151.788 44.6726 150.318 44.8418 148.355 45.095C143.841 45.8485 138.081 47.3516 135.337 48.3465C134.829 48.5683 134.367 48.7517 133.965 48.8773C133.573 48.9999 133.167 49.0904 132.801 49.068C132.399 49.0432 131.939 48.8646 131.711 48.3686C131.526 47.9669 131.577 47.5106 131.665 47.1311C131.849 46.3396 132.372 45.204 133.185 43.6925C134.01 42.16 135.173 40.1686 136.692 37.6357C138.084 35.1695 139.151 33.2065 139.917 31.6474C140.69 30.0745 141.13 28.9621 141.3 28.1846C141.474 27.3869 141.316 27.1751 141.248 27.1102C141.115 26.9848 140.758 26.8438 139.877 26.8438C134.573 26.8438 128.472 29.9318 122.348 35.5842C116.245 41.2183 110.208 49.3203 105.04 59.1504C103.96 61.3107 103.164 62.9041 102.655 64.0693C102.4 64.6523 102.228 65.1042 102.13 65.4508C102.064 65.68 102.041 65.8307 102.034 65.9232C102.039 65.9235 102.043 65.9238 102.048 65.924C102.132 65.9287 102.247 65.9252 102.4 65.9084C103.044 65.8372 104.019 65.5738 105.443 65.1853L105.456 65.1818L105.469 65.1788C106.552 64.924 107.438 64.7423 108.12 64.6539C108.46 64.6098 108.77 64.5862 109.039 64.593C109.292 64.5994 109.586 64.6336 109.844 64.7626C110.15 64.9157 110.401 65.2066 110.435 65.6171C110.462 65.9477 110.335 66.2429 110.22 66.4507C109.981 66.8809 109.532 67.3897 108.961 67.9608C108.253 68.6684 107.595 69.5643 107.116 70.402C106.877 70.8197 106.69 71.2109 106.565 71.5454C106.434 71.8936 106.391 72.1277 106.391 72.2489C106.391 72.4142 106.453 72.5723 106.686 72.7486C106.945 72.9438 107.379 73.1284 108.021 73.2621C109.296 73.5282 111.14 73.5443 113.294 73.3101C117.591 72.8431 122.883 71.4079 126.842 69.3058C132.633 66.1583 138.617 62.1268 143.495 58.1926C145.935 56.2253 148.089 54.2893 149.801 52.5072C151.522 50.7158 152.76 49.1159 153.408 47.8215Z" fill="white" stroke="black" stroke-width="1.5"/>
<path d="M106.039 148.618L106.039 148.618L106.043 148.623C108.699 151.658 110.857 153.891 112.569 155.344C113.426 156.071 114.15 156.585 114.752 156.907C115.365 157.235 115.782 157.326 116.047 157.308C116.261 157.293 116.428 157.208 116.59 156.963C116.776 156.683 116.943 156.201 117.038 155.443C117.227 153.931 117.097 151.62 116.655 148.46L116.655 148.457C116.272 145.655 116.016 143.096 115.92 141.23C115.872 140.302 115.862 139.521 115.901 138.96C115.919 138.687 115.952 138.422 116.016 138.206C116.047 138.103 116.1 137.955 116.202 137.817C116.309 137.673 116.536 137.462 116.891 137.462C117.03 137.462 117.161 137.495 117.234 137.516C117.325 137.541 117.424 137.575 117.526 137.613C117.732 137.69 117.988 137.799 118.283 137.933C118.875 138.203 119.657 138.59 120.568 139.07C122.389 140.028 124.748 141.367 127.171 142.897C129.325 144.164 130.951 145.101 132.185 145.73C133.456 146.377 134.196 146.633 134.619 146.656C134.796 146.665 134.844 146.628 134.85 146.624L134.85 146.624C134.862 146.615 134.92 146.567 134.983 146.373C135.122 145.945 135.161 145.216 135.161 144.044C135.161 141.482 133.742 137.959 131.101 133.966C128.478 130.001 124.718 125.672 120.189 121.521C116.066 117.773 109.785 113.687 104.53 110.949C101.898 109.578 99.5662 108.568 97.9161 108.101C97.0736 107.863 96.497 107.793 96.1707 107.832C96.1344 107.837 96.1058 107.842 96.0835 107.847C96.0538 108.804 95.3957 109.611 94.6158 110.143C93.7927 110.704 92.6942 111.066 91.5305 111.066C90.6732 111.066 90.1076 111.348 89.7185 111.811C89.3058 112.301 89.02 113.081 88.9297 114.192C88.7486 116.422 89.3793 119.653 90.7467 123.472C93.4708 131.081 98.999 140.698 106.039 148.618Z" fill="white" stroke="black" stroke-width="1.5"/>
<path d="M63.2641 153.772L63.264 153.772L63.2701 153.764L68.8493 145.648L69.7722 144.306L70.192 145.88L73.2335 157.286C73.9943 159.948 74.5895 161.951 75.1142 163.409C75.652 164.903 76.0739 165.694 76.4327 166.053C76.5898 166.21 76.6929 166.241 76.7551 166.248C76.8285 166.256 76.9631 166.245 77.1985 166.125C77.7041 165.867 78.3666 165.277 79.3346 164.309C80.707 162.937 81.6767 160.949 82.2642 157.548C82.8537 154.135 83.0457 149.376 82.919 142.537L82.919 142.532C82.7927 132.685 81.5926 123.816 79.9683 118.163C79.563 116.752 79.1351 115.555 78.6976 114.6C78.2558 113.636 77.8234 112.961 77.4272 112.556C77.0304 112.152 76.7718 112.112 76.6238 112.138C76.4431 112.168 76.1146 112.341 75.6902 112.984C75.3089 113.681 74.9505 114.251 74.6085 114.649C74.4354 114.85 74.2404 115.038 74.0206 115.172C73.7969 115.309 73.5019 115.417 73.1652 115.369C72.8243 115.321 72.5691 115.13 72.3921 114.924C72.2208 114.725 72.0946 114.48 71.9955 114.23C71.8 113.736 71.6489 113.063 71.521 112.24C71.1444 110.752 70.7264 110.349 70.3501 110.247C70.1261 110.187 69.7888 110.191 69.2628 110.349C68.7411 110.505 68.0975 110.794 67.2939 111.226C66.0147 111.952 64.5782 113.614 63.1263 116.06C61.6875 118.484 60.2879 121.583 59.0468 125.055C56.5642 132 54.7452 140.352 54.4939 147.614C54.4311 151.333 54.5902 154.223 54.9619 156.303C55.1478 157.344 55.3824 158.155 55.6536 158.756C55.9271 159.362 56.2135 159.701 56.4715 159.871C56.8777 160.139 57.5588 160.173 58.8013 159.172C60.0136 158.195 61.5 156.419 63.2641 153.772Z" fill="white" stroke="black" stroke-width="1.5"/>
</svg>
