<svg width="170" height="176" viewBox="0 0 170 176" fill="none" xmlns="http://www.w3.org/2000/svg">
<path d="M83.2583 10.6907C76.0283 27.5285 82.1872 67.6185 91.0238 60.4023C93.9694 57.9969 95.0405 57.9969 96.1116 60.6695C98.2538 65.7476 107.894 53.7206 111.375 41.9609C112.714 36.6155 114.053 26.1921 114.053 19.2432C114.053 3.47449 109.768 3.47448 102.27 18.7087L101.604 20.0385C99.9947 23.2514 95.2941 22.8772 94.2132 19.4502L92.6305 14.4324L91.2313 9.99645C90.1264 6.49335 85.2798 6.207 83.77 9.55562L83.2583 10.6907Z" fill="#BB2649"/>
<path d="M46.3052 15.5014C45.5018 17.3722 46.5729 23.2521 48.4474 28.8647C49.5586 32.1922 45.9449 35.1152 42.9231 33.333L39.8785 31.5374C26.4897 23.7866 23.5441 24.5884 28.0963 35.8136C31.8452 44.6334 41.7529 54.5223 55.1418 62.5403C66.3884 69.222 68.5306 69.4892 68.5306 63.8766C68.5306 60.4022 69.3339 60.1349 72.2795 62.5403C78.1706 67.3511 79.7772 58.7986 74.9572 47.3061C66.1206 26.192 49.5185 7.48338 46.3052 15.5014Z" fill="#BB2693"/>
<path d="M4.26418 62.5403C4.26418 64.1439 8.81638 68.4202 14.1719 71.6274L24.0796 77.24L15.7786 79.1108C0.783081 82.0508 -2.16246 83.9216 1.31863 87.9306C6.13861 93.8105 21.9374 95.4141 38.5396 91.9396C57.2839 88.1979 58.8906 87.3961 54.874 82.5853C52.464 79.6454 52.7317 78.8436 56.4806 78.8436C63.175 78.8436 59.9617 72.9637 50.054 67.0838C39.6107 61.204 4.26418 57.4622 4.26418 62.5403Z" fill="#BB2649"/>
<path d="M77.0994 80.4472C63.7106 89.5342 76.5638 110.114 91.2915 103.432C100.396 99.1558 101.467 85.7925 93.166 79.3781C87.5427 75.1018 84.3294 75.3691 77.0994 80.4472Z" fill="#BB4D26"/>
<path d="M134.136 85.7925C115.391 90.3361 111.107 92.7415 114.32 96.4832C116.73 99.4231 116.463 100.225 112.446 100.225C104.413 100.492 119.676 112.786 132.261 115.994C145.115 119.735 167.608 119.735 167.608 116.261C167.608 114.657 163.056 110.648 157.7 107.441L147.525 101.561L159.039 99.1559C170.821 96.7505 172.428 94.6123 167.072 90.0688C163.056 86.8616 141.634 84.1889 134.136 85.7925Z" fill="#633075"/>
<path d="M37.7362 102.096C25.4185 108.777 12.2975 119.201 9.35193 125.081C6.67416 129.891 7.20971 130.159 15.5108 129.09C20.3308 128.288 26.4896 126.684 29.4352 125.615C33.7196 123.744 33.4518 125.081 27.0252 135.771C21.1341 146.195 20.5985 148.333 24.3474 148.333C36.1296 148.333 50.8573 134.702 61.8361 113.855C66.3883 104.768 66.3883 104.768 60.4973 106.372C55.9451 107.441 55.1417 107.174 57.5517 104.768C59.1584 103.165 60.4973 100.759 60.4973 99.6904C60.4973 95.9486 46.3051 97.5522 37.7362 102.096Z" fill="#633075"/>
<path d="M134.307 73.7371C146.625 67.0554 159.746 56.6321 162.691 50.7522C165.369 45.9414 164.834 45.6741 156.533 46.7432C151.713 47.545 145.554 49.1486 142.608 50.2177C138.324 52.0885 138.592 50.7522 145.018 40.0615C150.909 29.6381 151.445 27.5 147.696 27.5C135.914 27.5 121.186 41.1306 110.207 61.9774C105.655 71.0644 105.655 71.0644 111.546 69.4608C116.098 68.3918 116.902 68.659 114.492 71.0644C112.885 72.668 111.546 75.0734 111.546 76.1425C111.546 79.8842 125.738 78.2806 134.307 73.7371Z" fill="#BB2693"/>
<path d="M100.664 113.588C100.664 114.925 98.7893 116.261 96.6471 116.261C87.8105 116.261 96.3793 140.315 111.375 157.153C122.621 169.982 125.835 169.714 123.96 156.351C123.157 150.471 122.889 145.66 123.425 145.66C123.96 145.66 128.78 148.066 133.868 151.273C142.972 156.618 143.508 156.618 143.508 151.807C143.508 145.928 137.081 136.306 127.441 127.486C118.605 119.468 100.664 110.114 100.664 113.588Z" fill="#BB2649"/>
<path d="M70.6728 116.528C64.5139 120.003 57.284 140.048 56.7484 155.549C56.4806 171.318 59.9617 173.723 67.4595 162.498L73.3506 153.945L76.5639 165.972C79.7772 177.198 80.3127 177.732 84.3294 173.723C87.5427 170.516 88.6138 164.636 88.346 150.204C88.0783 129.357 83.2583 112.519 79.2416 118.666C77.635 121.606 76.8316 121.606 76.2961 118.132C75.4928 114.925 74.1539 114.657 70.6728 116.528Z" fill="#BB2693"/>
</svg>
